<svg width="24" height="24" fill="none" xmlns="http://www.w3.org/2000/svg"><path fill-rule="evenodd" clip-rule="evenodd" d="M21.433 10.833H22.5a.389.389 0 00.39-.389v-3.11a.389.389 0 00-.39-.39h-3.648l-.63-1.258V4.222a.389.389 0 00-.389-.389H15.5a.389.389 0 00-.389.39v1.555c0 .214.174.389.39.389h2.092l.63 1.258v2.242a1.167 1.167 0 10-2.334 0v-.778a.389.389 0 00-.389-.39h-3.063l-1.215-.303V1.89c0-.86-.696-1.556-1.555-1.556H8.11c-.859 0-1.555.697-1.555 1.556v4.278H4.61c-.644 0-1.166.522-1.166 1.166V8.5H.722a.389.389 0 00-.275.664l.892.892-.892.891a.389.389 0 00.275.664h3.89c.644 0 1.166-.522 1.166-1.167V9.278h.778v3.889H5.389A2.722 2.722 0 002.698 15.5H1.5a.389.389 0 00-.389.389v1.555c0 .215.174.39.39.39h1.166v.777H.722A.389.389 0 00.333 19v1.555c0 .215.175.39.39.39H5a2.722 2.722 0 005.445 0h7a2.722 2.722 0 005.444 0h.389a.39.39 0 00.38-.477l-2.225-9.635zM15.89 9.667a1.167 1.167 0 102.333 0v8.166h-1.166v-.389c0-.644-.523-1.166-1.167-1.166V12a.389.389 0 00-.389-.389h-4.278v-1.057l1.073.268c.03.007.062.011.094.011H15.5a.389.389 0 00.39-.389v-.777zm1.556-4.278h-1.556V4.61h1.556v.778zM2.667 20.167v-.778H1.11v.778h1.556zm0-3.112h-.778v-.777h.778v.777zM22.11 7.722h-.777v2.333h.777V7.723zm-3.11 0h1.555v2.333H19V7.723zm-2.723 9.722a.389.389 0 00-.389-.389h-1.555v.778h1.944v-.389zm-3.983-8.178c.03.008.062.012.094.012h2.722v.777h-2.674l-2.77-.692v-.754l2.628.657zM8.11 1.111a.778.778 0 00-.778.778v1.555H8.5v-.777c0-.215.174-.39.389-.39h1.556V1.89a.778.778 0 00-.778-.778H8.11zm.778 3.111a.389.389 0 00.389-.389v-.778h1.167v.878l-3.112.933v-.644H8.89zm1.556 2.333v-1.81l-3.112.933v.877h3.112zm0 .778v.669l-1.073-.268a.389.389 0 00-.483.377v1.556c0 .178.121.334.294.377l1.262.315v1.252H7.333V7.333h3.112zm4.666 8.945v-3.89H7.333v.779h6.612c.214 0 .389.174.389.389v2.722h.777zm-10.11-5.834a.389.389 0 01-.39.39h-2.95l.503-.504a.389.389 0 000-.55l-.503-.502h3.34v1.166zm-.779-3.11V8.5h2.334V6.944H4.61a.389.389 0 00-.389.39zm3.5 15.555a1.947 1.947 0 01-1.944-1.945h.778a1.167 1.167 0 002.333 0h.778a1.947 1.947 0 01-1.945 1.945zm0-1.556a.389.389 0 00.39-.389h-.779c0 .215.175.39.39.39zm2.723-1.166H5v-3.89c0-.214.174-.388.39-.388h4.666c.215 0 .389.174.389.389v3.889zm.777 0H12v-4.278a1.947 1.947 0 00-1.944-1.945H5.389a1.947 1.947 0 00-1.944 1.945v4.278h.777v-3.89c0-.644.523-1.166 1.167-1.166h4.667c.644 0 1.166.522 1.166 1.167v3.889zm.735-6.223h1.599v3.89h-.778v-1.945c0-.732-.296-1.434-.82-1.945zm.82 4.667v1.556h5.445V18.61h-5.444zm7.39 4.278a1.947 1.947 0 01-1.945-1.945H19a1.167 1.167 0 102.334 0h.777a1.947 1.947 0 01-1.944 1.945zm0-1.556a.389.389 0 00.389-.389h-.778c0 .215.174.39.389.39zM19 20.167v-2.723h.778v-.777H19v-5.834h1.634l2.153 9.334H19zm2.334-3.5h-.778v.777h.777v-.777zm-15.556 0h.778v.777h-.778v-.777zm2.333 0h-.778v.777h.778v-.777zm.778 0h.778v.777h-.778v-.777zm8.167-7.39a.389.389 0 110 .778.389.389 0 010-.777zM.333 3.056H5.39v.778H.333v-.778zm5.445 1.556H1.11v.778h4.667V4.61z" fill="#495567"/></svg>